<svg width="444" height="131" viewBox="0 0 444 131" fill="none" xmlns="http://www.w3.org/2000/svg">
<path d="M0.377841 131V0.0909052H28.0554V57.8111H29.7812L76.8906 0.0909052H110.065L61.4858 58.706L110.641 131H77.5298L41.6705 77.179L28.0554 93.7983V131H0.377841ZM124.479 131V0.0909052H212.69V22.9105H152.157V54.1037H208.151V76.9233H152.157V108.18H212.945V131H124.479ZM234.694 131V0.0909052H322.904V22.9105H262.372V54.1037H318.366V76.9233H262.372V108.18H323.16V131H234.694ZM344.909 131V0.0909052H396.557C406.486 0.0909052 414.945 1.98721 421.933 5.77983C428.922 9.52983 434.249 14.75 437.913 21.4403C441.621 28.0881 443.474 35.7585 443.474 44.4517C443.474 53.1449 441.599 60.8153 437.849 67.4631C434.099 74.1108 428.666 79.2883 421.55 82.9957C414.476 86.7031 405.911 88.5568 395.854 88.5568H362.935V66.3764H391.379C396.706 66.3764 401.095 65.4602 404.547 63.6278C408.041 61.7528 410.641 59.1747 412.345 55.8935C414.092 52.5696 414.966 48.7557 414.966 44.4517C414.966 40.1051 414.092 36.3125 412.345 33.0739C410.641 29.7926 408.041 27.2571 404.547 25.4673C401.053 23.6349 396.621 22.7188 391.251 22.7188H372.587V131H344.909Z" fill="#383737"/>
</svg>
